# xmcd
#
# Track frame offsets:
#       150
#       10652
#       19527
#       30695
#       40535
#       49631
#       59186
#       69196
#       77980
#       87383
#       97423
#       107700
#
# Disc length: 1595 seconds
#
# Revision: 0
# Processed by: cddbd v1.5.2PL0 Copyright (c) Steve Scherf et al.
# Submitted via: WaveLab 6.11
#
DISCID=9506390c
DTITLE=Diverse - Tanzschlager der 60er Jaher 1
DYEAR=2015
DGENRE=Unterhaltungsmusik
TTITLE0=Pepito,Cha-cha
TTITLE1=Copacabana,Samba 
TTITLE2=Smoke Gets In Your Eyes
TTITLE3=Goody-Goody,Quickstep
TTITLE4=Besame Mucho,Rumba
TTITLE5=El Gato Montes,Paso-Doble
TTITLE6=Moulin Rouge,Langs.Walzer
TTITLE7=Wiener Blut,Walzer
TTITLE8=Bei mir bist du schön,Schneller-Foxtrott
TTITLE9=Olé Quapa,Tongo
TTITLE10=Yes Sir, That's My Baby,Charleston
TTITLE11=Danke schön,Foxtrott
EXTD=
EXTT0=
EXTT1=
EXTT2=
EXTT3=
EXTT4=
EXTT5=
EXTT6=
EXTT7=
EXTT8=
EXTT9=
EXTT10=
EXTT11=
PLAYORDER=
